HIERARCHY
ROOT joint_0
{
	OFFSET 0.000000 0.000000 0.000000
	CHANNELS 6 Xposition Yposition Zposition Zrotation Yrotation Xrotation 
	JOINT joint_1
	{
		OFFSET 7.745728 2.152245 124.869995
		CHANNELS 3 Zrotation Yrotation Xrotation
		JOINT joint_2
		{
			OFFSET -6.359406 2.617477 113.975952
			CHANNELS 3 Zrotation Yrotation Xrotation
			JOINT joint_3
			{
				OFFSET -8.187927 3.340103 113.713013
				CHANNELS 3 Zrotation Yrotation Xrotation
				JOINT joint_4
				{
					OFFSET 2.859222 5.755905 159.680054
					CHANNELS 3 Zrotation Yrotation Xrotation
					JOINT joint_5
					{
						OFFSET 22.724274 2.598469 88.906982
						CHANNELS 3 Zrotation Yrotation Xrotation
						End Site
						{
							OFFSET 0.000000 0.000000 0.000000
						}
					}
				}
				JOINT joint_6
				{
					OFFSET 2.312134 -31.513222 90.723022
					CHANNELS 3 Zrotation Yrotation Xrotation
					JOINT joint_7
					{
						OFFSET -0.486389 -150.827950 -17.660034
						CHANNELS 3 Zrotation Yrotation Xrotation
						JOINT joint_8
						{
							OFFSET 15.633850 -16.961029 -297.395020
							CHANNELS 3 Zrotation Yrotation Xrotation
							JOINT joint_9
							{
								OFFSET 5.600098 1.609863 -262.782959
								CHANNELS 3 Zrotation Yrotation Xrotation
								End Site
								{
									OFFSET 0.000000 0.000000 0.000000
								}
							}
						}
					}
				}
				JOINT joint_10
				{
					OFFSET 1.012756 37.963039 88.243042
					CHANNELS 3 Zrotation Yrotation Xrotation
					JOINT joint_11
					{
						OFFSET -2.397430 150.471996 -20.492065
						CHANNELS 3 Zrotation Yrotation Xrotation
						JOINT joint_12
						{
							OFFSET -10.575745 12.779427 -297.765015
							CHANNELS 3 Zrotation Yrotation Xrotation
							JOINT joint_13
							{
								OFFSET 196.311081 2.689713 -176.286011
								CHANNELS 3 Zrotation Yrotation Xrotation
								End Site
								{
									OFFSET 0.000000 0.000000 0.000000
								}
							}
						}
					}
				}
			}
		}
	}
	JOINT joint_14
	{
		OFFSET 1.244965 -96.891136 -118.152039
		CHANNELS 3 Zrotation Yrotation Xrotation
		JOINT joint_15
		{
			OFFSET -2.982971 -16.401871 -443.439026
			CHANNELS 3 Zrotation Yrotation Xrotation
			JOINT joint_16
			{
				OFFSET -42.052063 -15.386002 -460.966980
				CHANNELS 3 Zrotation Yrotation Xrotation
				JOINT joint_17
				{
					OFFSET 177.916595 102.818184 -88.655001
					CHANNELS 3 Zrotation Yrotation Xrotation
					End Site
					{
						OFFSET 0.000000 0.000000 0.000000
					}
				}
			}
		}
	}
	JOINT joint_18
	{
		OFFSET 1.788635 96.476997 -118.463074
		CHANNELS 3 Zrotation Yrotation Xrotation
		JOINT joint_19
		{
			OFFSET -9.555542 8.093691 -443.574951
			CHANNELS 3 Zrotation Yrotation Xrotation
			JOINT joint_20
			{
				OFFSET -48.427551 9.415819 -460.500023
				CHANNELS 3 Zrotation Yrotation Xrotation
				JOINT joint_21
				{
					OFFSET 204.978119 20.223980 -87.523996
					CHANNELS 3 Zrotation Yrotation Xrotation
					End Site
					{
						OFFSET 0.000000 0.000000 0.000000
					}
				}
			}
		}
	}
}
MOTION
Frames: 10
Frame Time: 0.016667
144.464783 -135.928955 1135.112061 -0.408111 -0.516934 0.572818 0.177723 0.970791 0.049748 0.186661 -0.160755 0.000451 0.173603 0.219961 -0.012402 0.019189 -0.669543 0.010228 0.000000 0.000000 0.000000 5.856683 -1.137934 2.939283 -0.263399 -0.393483 -4.988972 0.024530 0.519015 1.266272 0.000000 0.000000 0.000000 -2.476902 -2.612506 -2.574631 -0.711097 -2.313619 2.837229 1.540876 48.868644 -0.971615 0.000000 0.000000 0.000000 -12.495199 -1.708968 0.586929 -12.575521 1.340009 -2.991094 -12.448012 -2.252253 -4.949217 0.000000 0.000000 0.000000 -0.861353 -1.266226 -0.558981 -0.793559 1.875524 -0.564621 -0.827214 0.867550 -0.438017 0.000000 0.000000 0.000000 
144.573212 -135.991333 1135.130981 -0.399730 -0.518843 0.574984 0.177518 0.966853 0.046242 0.186612 -0.159382 0.000771 0.173630 0.217962 -0.012518 0.019619 -0.667213 0.008216 0.000000 0.000000 0.000000 5.874880 -1.140740 2.939575 -0.264860 -0.393922 -5.007594 0.024561 0.515820 1.269575 0.000000 0.000000 0.000000 -2.507869 -2.612557 -2.564258 -0.664042 -2.306912 2.783097 1.581043 48.885660 -0.900864 0.000000 0.000000 0.000000 -12.496297 -1.697152 0.591881 -12.575870 1.334582 -2.997957 -12.449785 -2.261162 -4.944894 0.000000 0.000000 0.000000 -0.865452 -1.266446 -0.556245 -0.797258 1.890447 -0.567558 -0.831445 0.864506 -0.439520 0.000000 0.000000 0.000000 
144.663025 -136.023666 1135.140991 -0.386540 -0.515673 0.576256 0.173566 0.959746 0.042339 0.182841 -0.158590 0.001241 0.169916 0.216420 -0.012263 0.019521 -0.671387 0.009101 0.000000 0.000000 0.000000 5.895171 -1.144658 2.938881 -0.265587 -0.395340 -5.023450 0.024547 0.519910 1.270151 0.000000 0.000000 0.000000 -2.519404 -2.608499 -2.558159 -0.638891 -2.299994 2.739488 1.601259 48.896906 -0.860217 0.000000 0.000000 0.000000 -12.499870 -1.694878 0.590347 -12.579538 1.338354 -2.993405 -12.452522 -2.273772 -4.939043 0.000000 0.000000 0.000000 -0.871869 -1.279312 -0.553252 -0.802710 1.916092 -0.572177 -0.837865 0.857351 -0.441548 0.000000 0.000000 0.000000 
144.738708 -136.034714 1135.145996 -0.369804 -0.508261 0.576442 0.166590 0.949227 0.039541 0.175875 -0.155854 0.000926 0.163181 0.212719 -0.012236 0.018546 -0.677637 0.013679 0.000000 0.000000 0.000000 5.918664 -1.148987 2.938551 -0.265742 -0.396865 -5.037694 0.024493 0.530821 1.268488 0.000000 0.000000 0.000000 -2.517289 -2.600025 -2.554535 -0.621714 -2.290928 2.695211 1.613765 48.905603 -0.827931 0.000000 0.000000 0.000000 -12.505006 -1.699857 0.585093 -12.585352 1.347922 -2.981470 -12.455873 -2.287671 -4.932835 0.000000 0.000000 0.000000 -0.879896 -1.302292 -0.549460 -0.809307 1.950093 -0.578223 -0.845797 0.846835 -0.443888 0.000000 0.000000 0.000000 
144.818863 -136.054520 1135.150024 -0.358342 -0.501602 0.576185 0.162409 0.939141 0.035085 0.171912 -0.154727 0.002046 0.159190 0.210700 -0.012890 0.017296 -0.685009 0.019471 0.000000 0.000000 0.000000 5.940160 -1.150692 2.938022 -0.266050 -0.395985 -5.048878 0.024460 0.538727 1.268037 0.000000 0.000000 0.000000 -2.513803 -2.591998 -2.552058 -0.610511 -2.282799 2.655654 1.621036 48.915992 -0.803459 0.000000 0.000000 0.000000 -12.508479 -1.703426 0.582026 -12.589338 1.355262 -2.972137 -12.457964 -2.299046 -4.927439 0.000000 0.000000 0.000000 -0.885914 -1.322282 -0.544988 -0.814013 1.981640 -0.583904 -0.851841 0.836061 -0.445398 0.000000 0.000000 0.000000 
144.920517 -136.102249 1135.155029 -0.361109 -0.500400 0.575868 0.164841 0.930714 0.028908 0.174639 -0.152473 0.003291 0.161906 0.208908 -0.013618 0.015581 -0.689214 0.026668 0.000000 0.000000 0.000000 5.960480 -1.147341 2.937520 -0.266905 -0.390126 -5.055820 0.024479 0.538957 1.270668 0.000000 0.000000 0.000000 -2.510480 -2.587161 -2.551162 -0.608070 -2.278272 2.627554 1.621169 48.932969 -0.791925 0.000000 0.000000 0.000000 -12.507124 -1.697758 0.585203 -12.587690 1.353635 -2.972685 -12.456560 -2.304228 -4.923791 0.000000 0.000000 0.000000 -0.886171 -1.326624 -0.540898 -0.813682 2.000206 -0.586348 -0.852381 0.828317 -0.444865 0.000000 0.000000 0.000000 
145.035141 -136.168320 1135.157959 -0.374586 -0.503210 0.574971 0.172745 0.925513 0.021922 0.182929 -0.151868 0.004353 0.170091 0.207980 -0.014658 0.013288 -0.693210 0.036090 0.000000 0.000000 0.000000 5.978170 -1.139634 2.936657 -0.268098 -0.380189 -5.058046 0.024528 0.532916 1.274888 0.000000 0.000000 0.000000 -2.506551 -2.584389 -2.551065 -0.613681 -2.276298 2.607376 1.614477 48.955414 -0.791350 0.000000 0.000000 0.000000 -12.502304 -1.685429 0.592916 -12.582000 1.345542 -2.979656 -12.452536 -2.304759 -4.921464 0.000000 0.000000 0.000000 -0.882304 -1.319800 -0.536539 -0.809728 2.009843 -0.586434 -0.849011 0.821304 -0.442739 0.000000 0.000000 0.000000 
145.144043 -136.239700 1135.162964 -0.387073 -0.502956 0.575049 0.180839 0.915916 0.013261 0.191467 -0.149989 0.005955 0.178507 0.206743 -0.016144 0.010997 -0.694012 0.045101 0.000000 0.000000 0.000000 5.993935 -1.130527 2.934742 -0.269351 -0.369083 -5.058101 0.024604 0.525588 1.280686 0.000000 0.000000 0.000000 -2.507406 -2.580835 -2.548943 -0.618172 -2.272903 2.586299 1.608729 48.973189 -0.790365 0.000000 0.000000 0.000000 -12.497387 -1.678956 0.601032 -12.576575 1.340768 -2.988432 -12.448948 -2.304414 -4.919868 0.000000 0.000000 0.000000 -0.878657 -1.320390 -0.532474 -0.805668 2.025827 -0.587561 -0.845788 0.813842 -0.440630 0.000000 0.000000 0.000000 
145.229965 -136.312302 1135.171021 -0.387811 -0.494276 0.578064 0.184628 0.898884 0.000572 0.195924 -0.146885 0.009050 0.182829 0.202847 -0.018027 0.009488 -0.687796 0.050173 0.000000 0.000000 0.000000 6.009325 -1.120686 2.929655 -0.270466 -0.357327 -5.054243 0.024708 0.518424 1.288052 0.000000 0.000000 0.000000 -2.516585 -2.574327 -2.541611 -0.613970 -2.265078 2.556714 1.610316 48.980117 -0.778710 0.000000 0.000000 0.000000 -12.495605 -1.688057 0.606763 -12.575340 1.346492 -2.997345 -12.449066 -2.306176 -4.918944 0.000000 0.000000 0.000000 -0.879391 -1.344110 -0.529442 -0.804960 2.062124 -0.592292 -0.846623 0.804039 -0.440017 0.000000 0.000000 0.000000 
145.300079 -136.388718 1135.182007 -0.382220 -0.479186 0.583286 0.187063 0.876611 -0.015120 0.199225 -0.144632 0.013046 0.185838 0.198349 -0.021018 0.008107 -0.677524 0.054232 0.000000 0.000000 0.000000 6.021553 -1.109448 2.922639 -0.271439 -0.344577 -5.045963 0.024830 0.510844 1.296450 0.000000 0.000000 0.000000 -2.534250 -2.565987 -2.529949 -0.604986 -2.254118 2.522175 1.615880 48.978475 -0.761595 0.000000 0.000000 0.000000 -12.495465 -1.708732 0.611499 -12.576484 1.358885 -3.007277 -12.451414 -2.307998 -4.919127 0.000000 0.000000 0.000000 -0.882362 -1.384686 -0.526937 -0.805732 2.113146 -0.599939 -0.849521 0.792667 -0.440125 0.000000 0.000000 0.000000 
